<?xml version="1.0" encoding="iso-8859-1"?>
<!-- Uploaded to: SVG Repo, www.svgrepo.com, Generator: SVG Repo Mixer Tools -->
<svg height="800px" width="800px" version="1.1" id="Layer_1" xmlns="http://www.w3.org/2000/svg" xmlns:xlink="http://www.w3.org/1999/xlink" 
	 viewBox="0 0 513.707 513.707" xml:space="preserve">
<g transform="translate(1 1)">
	<g>
		<path style="fill:#FFE100;" d="M195.267,317.293c-11.947-11.947-19.627-26.453-23.04-40.96
			c-14.507,9.387-29.013,21.333-43.52,34.987c-46.933,46.933-68.267,100.693-48.64,120.32c19.627,19.627,74.24-1.707,120.32-48.64
			c14.507-14.507,26.453-29.013,34.987-43.52C221.72,336.067,207.213,329.24,195.267,317.293"/>
		<path style="fill:#FFE100;" d="M195.267,196.12c11.947-11.947,26.453-19.627,40.96-23.04
			c-9.387-14.507-21.333-29.013-34.987-43.52C154.307,82.627,100.547,61.293,80.92,80.92s1.707,74.24,48.64,120.32
			c14.507,14.507,29.013,26.453,43.52,34.987C176.493,222.573,183.32,208.067,195.267,196.12"/>
		<path style="fill:#FFE100;" d="M173.08,237.933c-13.653-8.533-27.307-19.627-40.107-32.427c-1.707,0-3.413,0-4.267,0
			c-65.707,0-119.467,23.04-119.467,51.2s53.76,51.2,119.467,51.2c1.707,0,3.413,0,4.267,0c12.8-12.8,27.307-23.893,40.107-32.427
			v0.853c-3.413-13.653-3.413-28.16,0-40.96C173.08,236.227,173.08,237.08,173.08,237.933"/>
	</g>
	<g>
		<path style="fill:#FFFFFF;" d="M84.333,430.787c7.68,7.68,21.333,9.387,37.547,5.12c-6.827-0.853-12.8-2.56-17.067-6.827
			c-19.627-19.627,1.707-74.24,48.64-120.32c8.533-8.533,17.92-16.213,26.453-23.04c-0.853-3.413-2.56-6.827-3.413-10.24
			c-14.507,9.387-29.013,21.333-43.52,34.987C86.04,356.547,63.853,411.16,84.333,430.787"/>
		<path style="fill:#FFFFFF;" d="M130.413,205.507c14.507,14.507,29.013,26.453,43.52,34.987c0.853-5.12,3.413-10.24,5.12-15.36
			c-10.24-7.68-19.627-16.213-29.867-25.6C102.253,152.6,80.92,98.84,100.547,79.213c1.707,0,2.56-0.853,3.413-1.707
			c-9.387,0-16.213,2.56-21.333,7.68C62.147,104.813,83.48,158.573,130.413,205.507"/>
		<path style="fill:#FFFFFF;" d="M127.853,308.76c1.707,0,3.413,0,5.12,0c0,0,0.853,0,0.853-0.853
			c-57.173-3.413-99.84-24.747-99.84-50.347c0-25.6,42.667-46.08,98.987-50.347c0,0-0.853,0-0.853-0.853c-1.707,0-3.413,0-5.12,0
			c-65.707,0-119.467,23.04-119.467,51.2C7.533,285.72,62.147,308.76,127.853,308.76"/>
	</g>
	<path style="fill:#FFE100;" d="M310.467,130.413c-14.507,14.507-26.453,29.013-34.987,43.52c15.36,3.413,29.867,11.093,40.96,23.04
		c11.947,11.947,19.627,26.453,23.04,40.96c14.507-9.387,29.013-21.333,43.52-34.987c46.933-46.933,68.267-100.693,48.64-120.32
		C411.16,62.147,356.547,83.48,310.467,130.413"/>
	<path style="fill:#FFA800;" d="M427.373,83.48c-7.68-7.68-21.333-9.387-37.547-5.12c6.827,0.853,12.8,2.56,17.067,6.827
		c19.627,19.627-1.707,74.24-48.64,120.32c-8.533,8.533-17.067,16.213-26.453,23.04c0.853,3.413,2.56,6.827,3.413,10.24
		c14.507-9.387,29.013-21.333,43.52-34.987C425.667,157.72,447.853,103.96,427.373,83.48"/>
	<path style="fill:#FFE100;" d="M316.44,317.293c-11.947,11.947-26.453,19.627-40.96,23.04c9.387,14.507,21.333,29.013,34.987,43.52
		c46.933,46.933,100.693,68.267,120.32,48.64c19.627-19.627-1.707-74.24-48.64-120.32c-14.507-14.507-29.013-26.453-43.52-34.987
		C335.213,290.84,328.387,305.347,316.44,317.293"/>
	<path style="fill:#FFA800;" d="M381.293,308.76c-14.507-14.507-29.013-26.453-43.52-34.987c-0.853,5.12-2.56,10.24-5.12,15.36
		c10.24,7.68,19.627,16.213,29.867,25.6c46.933,46.933,68.267,100.693,48.64,120.32c-0.853,0.853-1.707,1.707-2.56,1.707
		c9.387,0,16.213-2.56,21.333-7.68C449.56,409.453,428.227,355.693,381.293,308.76"/>
	<g>
		<path style="fill:#FFE100;" d="M274.627,173.933c8.533-13.653,19.627-27.307,32.427-40.107c0-1.707,0-3.413,0-5.12
			c0-65.707-23.04-119.467-51.2-119.467s-51.2,53.76-51.2,119.467c0,1.707,0,3.413,0,5.12c12.8,12.8,23.893,27.307,32.427,40.107
			c-0.853,0-1.707,0-1.707,0.853c13.653-3.413,28.16-3.413,40.96,0C275.48,173.933,275.48,173.933,274.627,173.933"/>
		<path style="fill:#FFE100;" d="M383.853,205.507c-1.707,0-3.413,0-4.267,0c-12.8,12.8-27.307,23.893-40.107,31.573
			c0-0.853,0-1.707-0.853-1.707c3.413,13.653,3.413,27.307,0,40.96v-0.853c13.653,8.533,27.307,19.627,40.107,31.573
			c1.707,0,3.413,0,4.267,0c65.707,0,119.467-23.04,119.467-51.2S449.56,205.507,383.853,205.507"/>
	</g>
	<path style="fill:#FFA800;" d="M383.853,205.507c-1.707,0-3.413,0-4.267,0l-0.853,0.853c56.32,4.267,98.987,24.747,98.987,50.347
		s-42.667,46.08-98.987,50.347c0,0,0.853,0,0.853,0.853c1.707,0,3.413,0,4.267,0c65.707,0,119.467-23.04,119.467-51.2
		S449.56,205.507,383.853,205.507"/>
	<path style="fill:#FFE100;" d="M235.373,339.48h0.853c-8.533,13.653-19.627,27.307-32.427,40.107c0,1.707,0,3.413,0,4.267
		c0,65.707,23.04,119.467,51.2,119.467s51.2-53.76,51.2-119.467c0-1.707,0-3.413,0-4.267c-12.8-12.8-23.893-27.307-31.573-40.107
		c0.853,0,1.707,0,1.707-0.853C263.533,342.893,249.027,342.893,235.373,339.48"/>
	<path style="fill:#CB7804;" d="M341.187,256.707c0-46.933-38.4-85.333-85.333-85.333s-85.333,38.4-85.333,85.333
		s38.4,85.333,85.333,85.333S341.187,303.64,341.187,256.707"/>
	<path style="fill:#F89B18;" d="M255.853,171.373c-4.267,0-8.533,0.853-12.8,0.853c40.96,6.827,72.533,41.813,72.533,84.48
		s-31.573,78.507-72.533,84.48c4.267,0.853,8.533,0.853,12.8,0.853c46.933,0,85.333-38.4,85.333-85.333
		S302.787,171.373,255.853,171.373"/>
	<path d="M255.853,350.573c-52.053,0-93.867-41.813-93.867-93.867s41.813-93.867,93.867-93.867s93.867,41.813,93.867,93.867
		S307.907,350.573,255.853,350.573z M255.853,179.907c-42.667,0-76.8,34.133-76.8,76.8s34.133,76.8,76.8,76.8s76.8-34.133,76.8-76.8
		S298.52,179.907,255.853,179.907z"/>
	<path d="M204.653,265.24c-5.12,0-8.533-3.413-8.533-8.533c0-33.28,26.453-59.733,59.733-59.733c5.12,0,8.533,3.413,8.533,8.533
		s-3.413,8.533-8.533,8.533c-23.893,0-42.667,18.773-42.667,42.667C213.187,261.827,209.773,265.24,204.653,265.24z"/>
	<path d="M338.627,246.467c-0.853,0-2.56,0-3.413-0.853c-2.56-0.853-4.267-3.413-5.12-5.973
		c-3.413-14.507-10.24-27.307-20.48-37.547c-10.24-10.24-23.04-17.067-37.547-20.48c-2.56-0.853-5.12-2.56-5.973-5.12
		c-0.853-2.56-0.853-5.12,0.853-7.68c9.387-15.36,22.187-30.72,36.693-45.227c23.04-23.04,49.493-41.813,73.387-51.2
		c26.453-10.24,46.933-9.387,59.733,2.56c11.947,11.947,12.8,33.28,2.56,59.733c-9.387,23.893-27.307,49.493-51.2,73.387
		c-14.507,14.507-29.867,26.453-45.227,36.693C342.04,245.613,340.333,246.467,338.627,246.467z M288.28,168.813
		c12.8,4.267,23.893,11.947,34.133,21.333c9.387,9.387,17.067,21.333,21.333,34.133c11.093-7.68,22.187-17.067,32.427-28.16
		c22.187-22.187,38.4-46.08,46.933-67.413c7.68-18.773,7.68-34.133,0.853-40.96c-5.973-6.827-21.333-6.827-40.107,0.853
		c-21.333,8.533-46.08,25.6-67.413,46.933l0,0C306.2,146.627,295.96,157.72,288.28,168.813z M310.467,130.413L310.467,130.413
		L310.467,130.413z"/>
	<path d="M409.453,447.853c-9.387,0-20.48-2.56-32.427-6.827c-23.893-9.387-49.493-27.307-73.387-51.2
		c-14.507-14.507-26.453-29.867-36.693-45.227c-1.707-2.56-1.707-5.12-0.853-7.68s3.413-4.267,5.973-5.12
		c14.507-3.413,27.307-10.24,37.547-20.48c10.24-10.24,17.067-23.04,20.48-37.547c0.853-2.56,2.56-5.12,5.12-5.973
		s5.12-0.853,7.68,0.853c15.36,10.24,30.72,22.187,45.227,36.693c23.04,23.04,41.813,49.493,51.2,73.387
		c10.24,26.453,9.387,46.933-2.56,59.733C429.933,444.44,421.4,447.853,409.453,447.853z M288.28,344.6
		c7.68,11.093,17.067,22.187,28.16,32.427c21.333,22.187,46.08,38.4,67.413,46.933c18.773,7.68,34.133,7.68,40.96,0.853
		c6.827-6.827,6.827-22.187-0.853-40.96c-8.533-21.333-25.6-46.08-46.933-67.413c-10.24-10.24-21.333-19.627-32.427-28.16
		c-4.267,12.8-11.947,23.893-21.333,34.133C313.88,332.653,301.08,340.333,288.28,344.6z"/>
	<path d="M102.253,447.853c-11.093,0-20.48-3.413-27.307-10.24c-11.947-11.947-12.8-33.28-2.56-59.733
		c9.387-23.893,27.307-49.493,51.2-73.387c14.507-14.507,29.867-26.453,45.227-36.693c2.56-1.707,5.12-1.707,7.68-0.853
		c2.56,0.853,4.267,3.413,5.12,5.973c3.413,14.507,10.24,27.307,20.48,37.547l0,0c10.24,10.24,23.04,17.067,37.547,20.48
		c2.56,0.853,5.12,2.56,5.973,5.12c0.853,2.56,0.853,5.12-0.853,7.68c-10.24,15.36-22.187,30.72-36.693,45.227
		c-23.04,23.04-49.493,41.813-73.387,51.2C122.733,445.293,111.64,447.853,102.253,447.853z M167.96,289.133
		c-11.093,7.68-22.187,17.067-32.427,28.16c-22.187,22.187-38.4,46.08-46.933,67.413c-7.68,18.773-7.68,34.133-0.853,40.96
		c6.827,6.827,22.187,6.827,40.96-0.853c21.333-8.533,46.08-25.6,67.413-46.933c10.24-10.24,19.627-21.333,28.16-32.427
		c-12.8-4.267-23.893-11.947-34.133-21.333C179.907,313.88,172.227,301.933,167.96,289.133z"/>
	<path d="M173.08,246.467c-1.707,0-3.413-0.853-4.267-1.707c-15.36-10.24-30.72-22.187-45.227-36.693
		c-23.04-23.04-41.813-49.493-51.2-73.387c-10.24-26.453-9.387-46.933,2.56-59.733c11.947-11.947,33.28-12.8,59.733-2.56
		c23.893,9.387,49.493,27.307,73.387,51.2c14.507,14.507,26.453,29.867,36.693,45.227c1.707,2.56,1.707,5.12,0.853,7.68
		c-0.853,2.56-3.413,4.267-5.973,5.12c-14.507,3.413-27.307,10.24-37.547,20.48c-10.24,10.24-17.067,23.04-20.48,37.547
		c-0.853,2.56-2.56,5.12-5.12,5.973C174.787,245.613,173.933,246.467,173.08,246.467z M102.253,82.627
		c-6.827,0-11.947,1.707-15.36,5.12c-6.827,6.827-6.827,22.187,0.853,40.96c8.533,21.333,25.6,46.08,46.933,67.413
		c10.24,10.24,21.333,19.627,32.427,28.16c4.267-12.8,11.947-23.893,21.333-34.133c9.387-9.387,21.333-17.067,34.133-21.333
		c-7.68-11.093-17.067-22.187-28.16-32.427c-22.187-22.187-46.08-38.4-67.413-46.933C117.613,85.187,109.08,82.627,102.253,82.627z"
		/>
	<path d="M234.52,182.467c-3.413,0-7.68-2.56-8.533-6.827c0-0.853,0-1.707,0-3.413c-7.68-11.093-17.067-23.04-27.307-34.133
		c-1.707-1.707-2.56-3.413-2.56-5.973v-1.707c0-0.853,0-1.707,0-3.413c0-73.387,25.6-128,59.733-128s59.733,54.613,59.733,128
		c0,0.853,0,1.707,0,3.413v1.707c0,2.56-0.853,4.267-2.56,5.973c-11.093,11.093-20.48,23.04-28.16,34.987c0,0.853,0,0.853,0,1.707
		c-0.853,4.267-5.973,7.68-10.24,5.973l0,0c-11.947-2.56-24.747-2.56-37.547,0l0,0C236.227,182.467,235.373,182.467,234.52,182.467z
		 M213.187,129.56c10.24,11.093,19.627,23.04,27.307,34.133c10.24-1.707,20.48-1.707,29.867,0
		c7.68-11.947,17.067-23.04,27.307-34.133v-0.853C297.667,63,275.48,17.773,255,17.773S212.333,63,212.333,128.707
		C213.187,128.707,213.187,129.56,213.187,129.56z"/>
	<path d="M383.853,316.44c-0.853,0-1.707,0-3.413,0h-1.707c-2.56,0-4.267-0.853-5.973-2.56
		c-11.947-11.093-23.893-21.333-35.84-29.013c-0.853,0-0.853,0-1.707,0c-4.267-0.853-6.827-5.12-5.973-10.24
		c2.56-11.947,2.56-24.747,0-37.547c-0.853-4.267,1.707-9.387,5.973-10.24c0.853,0,1.707,0,3.413,0
		c11.093-7.68,23.04-17.067,34.133-27.307c1.707-1.707,3.413-2.56,5.973-2.56h1.707c0.853,0,1.707,0,3.413,0
		c73.387,0,128,25.6,128,59.733S457.24,316.44,383.853,316.44z M383,299.373h0.853c65.707,0,110.933-22.187,110.933-42.667
		S449.56,214.04,383.853,214.04H383c-11.093,10.24-23.04,19.627-34.133,27.307c1.707,10.24,1.707,20.48,0,29.867
		C359.96,279.747,371.053,289.133,383,299.373z"/>
	<path d="M127.853,316.44c-73.387,0-128-25.6-128-59.733s54.613-59.733,128-59.733c0.853,0,1.707,0,3.413,0h1.707
		c2.56,0,4.267,0.853,5.973,2.56c11.093,11.093,23.04,20.48,34.133,28.16c0.853,0,1.707,0,2.56,0
		c4.267,1.707,6.827,5.12,5.973,10.24c-3.413,11.947-3.413,24.747,0,37.547c0.853,4.267-1.707,9.387-5.973,10.24
		c-0.853,0-0.853,0-1.707,0c-11.947,7.68-23.893,17.067-34.987,28.16c-1.707,1.707-3.413,2.56-5.973,2.56h-1.707
		C129.56,316.44,128.707,316.44,127.853,316.44z M127.853,214.04c-65.707,0-110.933,22.187-110.933,42.667
		s45.227,42.667,110.933,42.667h0.853c11.093-10.24,23.04-19.627,34.133-27.307c-1.707-10.24-1.707-20.48,0-29.867
		c-11.947-7.68-23.04-17.067-34.133-27.307C128.707,214.04,127.853,214.04,127.853,214.04z"/>
	<path d="M255.853,512.707c-34.133,0-59.733-54.613-59.733-128c0-0.853,0-1.707,0-3.413v-1.707c0-2.56,0.853-4.267,2.56-5.973
		c11.093-11.093,20.48-23.04,28.16-34.987c0-0.853,0-0.853,0-1.707c0.853-4.267,5.973-7.68,10.24-5.973l0,0l0,0
		c11.947,2.56,24.747,2.56,37.547,0l0,0c4.267-0.853,9.387,1.707,10.24,5.973c0,0.853,0,1.707,0,3.413
		c7.68,11.093,17.067,23.04,27.307,34.133c1.707,1.707,2.56,3.413,2.56,5.973v1.707c0,0.853,0,1.707,0,2.56
		C315.587,458.093,289.987,512.707,255.853,512.707z M213.187,383.853v0.853c0,65.707,22.187,110.933,42.667,110.933
		s42.667-45.227,42.667-110.933v-0.853c-10.24-11.093-19.627-23.04-27.307-34.133c-10.24,1.707-20.48,1.707-29.867,0
		C232.813,360.813,223.427,371.907,213.187,383.853z"/>
</g>
</svg>